<?xml version="1.0"?>
<svg xmlns="http://www.w3.org/2000/svg" height="512px" viewBox="0 0 511 511.99324" width="512px"><g><path d="m298.277344 262.671875-2.558594-7.585937c-1.652344-4.972657-1.652344-10.339844 0-15.308594l3.207031-9.628906c1.1875-3.558594 3.179688-6.796876 5.820313-9.460938l128.222656-128.179688c7.363281-7.375 18.625-9.207031 27.945312-4.539062 3.53125 1.753906 7.816407.328125 9.589844-3.191406l24.132813-48.273438c1.382812-2.75.847656-6.078125-1.332031-8.253906l-8.148438-8.15625c-2.183594-2.175781-5.511719-2.710938-8.269531-1.332031l-48.253907 24.132812c-1.699218.84375-2.992187 2.332031-3.59375 4.128907-.601562 1.800781-.464843 3.765624.386719 5.460937 4.664063 9.320313 2.84375 20.578125-4.523437 27.949219l-128.179688 128.179687c-2.65625 2.652344-5.894531 4.65625-9.457031 5.84375l-9.632813 3.207031c-4.984374 1.660157-10.375 1.660157-15.359374 0l-7.578126-2.558593c-1.636718-.550781-3.417968-.488281-5.007812.179687l-156.1875 64.808594c-5.792969 2.398438-11.613281 4.753906-17.433594 7.109375-11.332031 4.574219-23.039062 9.300781-34.269531 14.328125-1.707031.769531-3.53125 1.449219-5.359375 2.132812-3.769531.902344-7.195312 2.871094-9.871094 5.675782-.976562 1.667968-1.25 3.65625-.769531 5.527344 1.046875 3.382812 3.449219 6.175781 6.628906 7.722656 6.191407 2.457031 12.890625 3.363281 19.507813 2.636718l4.488281-.050781h108.058594c2.464843 0 4.804687 1.066407 6.425781 2.917969l11.75 13.894531c1.109375 1.476563 1.707031 3.273438 1.707031 5.121094v133.304687c.917969 5.632813 4.53125 10.457032 9.675781 12.921876 2.839844 1.675781 6.277344 2.011718 9.386719.921874 4.433594-2.136718 7.800781-5.988281 9.320313-10.667968 8.890625-22.417969 18.355468-45.039063 27.492187-66.917969l61.84375-148.992187c.667969-1.589844.738281-3.371094.195313-5.007813zm-110.746094 39.0625c-2.21875-2.140625-3.109375-5.3125-2.328125-8.296875s3.113281-5.3125 6.097656-6.09375c2.980469-.78125 6.15625.109375 8.296875 2.328125l24.132813 24.128906c2.21875 2.144531 3.109375 5.316407 2.328125 8.300781-.78125 2.984376-3.113282 5.3125-6.097656 6.09375-2.980469.78125-6.15625-.109374-8.296876-2.328124zm24.132812 132.746094c-2.441406 2.441406-6.109374 3.171875-9.300781 1.851562-3.1875-1.320312-5.265625-4.433593-5.265625-7.882812 0-3.453125 2.078125-6.566407 5.265625-7.886719 3.191407-1.320312 6.859375-.589844 9.300781 1.851562 3.332032 3.332032 3.332032 8.734376 0 12.066407zm12.066407-36.199219c-2.441407 2.441406-6.109375 3.171875-9.300781 1.851562-3.1875-1.320312-5.269532-4.433593-5.269532-7.882812 0-3.453125 2.082032-6.5625 5.269532-7.886719 3.191406-1.320312 6.859374-.589843 9.300781 1.851563 3.332031 3.332031 3.332031 8.734375 0 12.066406zm12.066406-36.207031c-2.441406 2.441406-6.113281 3.171875-9.300781 1.851562-3.1875-1.320312-5.269532-4.433593-5.269532-7.882812 0-3.453125 2.082032-6.5625 5.269532-7.886719 3.1875-1.320312 6.859375-.589844 9.300781 1.851562 3.332031 3.332032 3.332031 8.734376 0 12.066407zm12.066406-60.339844c-3.332031 3.332031-8.734375 3.332031-12.066406 0l-24.132813-24.128906c-3.234374-3.351563-3.1875-8.671875.105469-11.964844 3.289063-3.289063 8.613281-3.335937 11.960938-.101563l24.132812 24.132813c3.332031 3.332031 3.332031 8.730469 0 12.0625zm24.140625-24.128906c-3.332031 3.328125-8.734375 3.328125-12.066406 0l-24.140625-24.175781c-3.234375-3.347657-3.1875-8.671876.101563-11.964844 3.292968-3.289063 8.617187-3.335938 11.964843-.101563l24.140625 24.140625c1.609375 1.601563 2.515625 3.777344 2.515625 6.050782 0 2.269531-.90625 4.449218-2.515625 6.050781zm0 0" data-original="#000000" class="active-path" data-old_color="#000000" fill="#FFFFFF"/><path d="m504.964844 242.453125-30.167969-30.164063c-4.800781-4.800781-11.3125-7.5-18.101563-7.5-6.792968 0-13.304687 2.699219-18.105468 7.5l-39.140625 39.144532c-1.808594-5.65625-4.933594-10.800782-9.121094-15.011719-11.710937-13.210937-31.867187-14.554687-45.226563-3.011719-11.539062 13.359375-10.195312 33.511719 3.011719 45.226563 6.695313 6.851562 15.824219 10.78125 25.402344 10.929687 7.414063.125 14.566406-2.726562 19.855469-7.917968.609375-.679688 1.179687-1.390626 1.707031-2.132813.464844-.246094.910156-.53125 1.324219-.855469l54.296875-54.304687c1.601562-1.601563 3.773437-2.503907 6.039062-2.503907 2.261719 0 4.433594.902344 6.035157 2.503907l30.167968 30.164062c1.601563 1.601563 2.5 3.773438 2.5 6.039063s-.898437 4.4375-2.5 6.039062l-39.09375 39.089844c-1.84375-5.636719-4.988281-10.761719-9.179687-14.960938-6.011719-6.132812-13.976563-9.972656-22.519531-10.84375-8.394532-1.039062-16.796876 1.847657-22.777344 7.828126-5.980469 5.976562-8.871094 14.378906-7.832032 22.773437 2 17.511719 15.816407 31.328125 33.332032 33.328125 1.003906.09375 1.988281.136719 2.960937.136719 7.402344.121093 14.542969-2.75 19.804688-7.960938.605469-.691406 1.175781-1.410156 1.707031-2.160156.457031-.242187.894531-.527344 1.304688-.851563l54.304687-54.304687c4.808594-4.800781 7.507813-11.316406 7.507813-18.105469.003906-6.792968-2.695313-13.308594-7.496094-18.113281zm0 0" data-original="#000000" class="active-path" data-old_color="#000000" fill="#FFFFFF"/><path d="m18.90625 191.136719c-.957031 8.382812 1.921875 16.75 7.832031 22.773437 5.265625 5.199219 12.40625 8.0625 19.804688 7.945313.992187 0 1.972656 0 2.96875-.136719 8.53125-.882812 16.480469-4.71875 22.480469-10.84375 6.125-6 9.960937-13.949219 10.84375-22.480469.960937-8.382812-1.917969-16.753906-7.832032-22.773437-.683594-.609375-1.398437-1.179688-2.144531-1.707032-.238281-.464843-.523437-.90625-.851563-1.3125l-53.300781-53.285156c-.9375-.9375-1.347656-2.277344-1.097656-3.578125.25-1.304687 1.128906-2.398437 2.34375-2.921875l25.226563-10.8125c2.875-1.148437 4.902343-3.769531 5.296874-6.84375.394532-3.070312-.910156-6.117187-3.40625-7.953125-2.496093-1.835937-5.789062-2.175781-8.609374-.886719l-25.195313 10.8125c-6.425781 2.75-11.066406 8.511719-12.390625 15.375-1.320312 6.863282.851562 13.933594 5.792969 18.875l38.066406 38.078126c-5.636719 1.839843-10.757813 4.988281-14.949219 9.179687-6.140625 6-9.992187 13.957031-10.878906 22.496094zm0 0" data-original="#000000" class="active-path" data-old_color="#000000" fill="#FFFFFF"/><path d="m166.691406 130.550781c17.640625 1.078125 32.863282-12.242187 34.136719-29.867187-.054687-.910156-.160156-1.816406-.308594-2.714844.148438-.507812.253907-1.027344.308594-1.554688v-75.347656c-.023437-1.335937.644531-2.585937 1.765625-3.3125 1.09375-.753906 2.492188-.902344 3.71875-.398437l25.480469 10.1875c2.832031 1.132812 6.050781.667969 8.449219-1.214844 2.394531-1.886719 3.601562-4.90625 3.167968-7.925781-.433594-3.015625-2.445312-5.574219-5.277344-6.707032l-25.488281-10.1875c-6.488281-2.597656-13.84375-1.804687-19.632812 2.113282-5.789063 3.917968-9.253907 10.457031-9.25 17.445312v53.914063c-5.28125-2.722657-11.128907-4.148438-17.070313-4.15625-17.636718-1.078125-32.859375 12.238281-34.132812 29.867187 1.28125 17.621094 16.5 30.933594 34.132812 29.859375zm0 0" data-original="#000000" class="active-path" data-old_color="#000000" fill="#FFFFFF"/><path d="m171.128906 153.589844v25.597656c0 4.714844 3.820313 8.535156 8.535156 8.535156 4.710938 0 8.535157-3.820312 8.535157-8.535156v-25.597656c0-4.714844-3.824219-8.535156-8.535157-8.535156-4.714843 0-8.535156 3.820312-8.535156 8.535156zm0 0" data-original="#000000" class="active-path" data-old_color="#000000" fill="#FFFFFF"/><path d="m140.53125 190.007812c2.140625 2.21875 5.3125 3.109376 8.296875 2.328126s5.3125-3.109376 6.09375-6.09375c.78125-2.984376-.105469-6.15625-2.324219-8.300782l-18.101562-18.105468c-3.347656-3.234376-8.667969-3.1875-11.960938.101562-3.292968 3.292969-3.339844 8.617188-.105468 11.964844zm0 0" data-original="#000000" class="active-path" data-old_color="#000000" fill="#FFFFFF"/><path d="m111.398438 221.855469h25.597656c4.714844 0 8.535156-3.820313 8.535156-8.535157 0-4.710937-3.820312-8.53125-8.535156-8.53125h-25.597656c-4.714844 0-8.535157 3.820313-8.535157 8.53125 0 4.714844 3.820313 8.535157 8.535157 8.535157zm0 0" data-original="#000000" class="active-path" data-old_color="#000000" fill="#FFFFFF"/><path d="m333.265625 341.320312h25.597656c4.714844 0 8.535157-3.820312 8.535157-8.53125 0-4.714843-3.820313-8.535156-8.535157-8.535156h-25.597656c-4.714844 0-8.535156 3.820313-8.535156 8.535156 0 4.710938 3.820312 8.53125 8.535156 8.53125zm0 0" data-original="#000000" class="active-path" data-old_color="#000000" fill="#FFFFFF"/><path d="m334.511719 359.855469c-3.351563-3.234375-8.671875-3.1875-11.964844.105469-3.289063 3.292968-3.335937 8.613281-.101563 11.960937l18.105469 18.101563c3.347657 3.230468 8.671875 3.1875 11.960938-.105469 3.292969-3.292969 3.339843-8.613281.105469-11.960938zm0 0" data-original="#000000" class="active-path" data-old_color="#000000" fill="#FFFFFF"/><path d="m299.128906 366.921875c-4.710937 0-8.53125 3.820313-8.53125 8.535156v25.597657c0 4.714843 3.820313 8.535156 8.53125 8.535156 4.714844 0 8.535156-3.820313 8.535156-8.535156v-25.597657c0-4.714843-3.820312-8.535156-8.535156-8.535156zm0 0" data-original="#000000" class="active-path" data-old_color="#000000" fill="#FFFFFF"/><path d="m465.785156 452.253906h-53.914062c2.722656-5.277344 4.148437-11.125 4.15625-17.066406 1.082031-17.636719-12.238282-32.859375-29.867188-34.132812-17.089844 2.300781-29.847656 16.886718-29.847656 34.132812 0 17.25 12.757812 31.835938 29.847656 34.132812.910156-.054687 1.816406-.160156 2.714844-.3125.507812.15625 1.03125.261719 1.5625.3125h75.347656c1.328125 0 2.566406.65625 3.3125 1.753907.742188 1.097656.894532 2.496093.402344 3.726562l-10.191406 25.480469c-1.753906 4.375.375 9.34375 4.75 11.097656s9.34375-.375 11.097656-4.75l10.1875-25.488281c2.597656-6.488281 1.804688-13.84375-2.113281-19.632813-3.917969-5.789062-10.453125-9.253906-17.445313-9.253906zm0 0" data-original="#000000" class="active-path" data-old_color="#000000" fill="#FFFFFF"/></g> </svg>
