<?xml version="1.0"?>
<svg xmlns="http://www.w3.org/2000/svg" id="Capa_1" enable-background="new 0 0 507.985 507.985" height="512px" viewBox="0 0 507.985 507.985" width="512px"><g><g><path d="m463.775 21.659c-23.712-23.711-60.26-28.344-88.946-11.965-5.252-1.226-10.999.186-15.085 4.272l-20.421 20.421c-3.149 3.149-4.589 7.348-4.352 11.469-7.412 7.653-13.043 16.719-16.569 26.662-4.976.788-9.232 3.733-11.701 8.144l-15.701 28.041-54.983 63.501c-8.63 9.969 6.49 23.059 15.12 13.09l48.607-56.138 56.531 56.531-50.536 43.764-20.636-20.635c-3.905-3.905-10.237-3.905-14.142 0l-65.691 65.69c-2.613 2.613-3.572 6.454-2.494 9.989l8.234 26.997-35.714 30.924-.01.01s0 0 0-.01l-32.27-32.26c0-.01 0-.01 0-.01l49.2-56.82c8.67-10.02-6.45-23.11-15.12-13.09l-49.207 56.824c-4.656 5.375-5.95 12.567-3.996 18.955l-69.743 83.047c-3.335 3.972-3.081 9.835.587 13.502l2.247 2.247c-19.972 23.004-32.102 51.91-34.405 82.421-.416 5.507 3.711 10.325 9.219 10.724 5.728.416 10.328-3.968 10.724-9.219 1.943-25.741 12.031-50.152 28.646-69.741l1.7 1.7c3.706 3.45 8.883 4.079 13.502.586l83.055-69.749c6.389 1.955 13.583.662 18.959-3.995l29.007-25.125.615 2.017c2.11 6.919 10.642 9.378 16.111 4.642l6.541-5.664 20.656 20.656c-4.951.599-8.789 4.807-8.789 9.92v60c0 5.523 4.477 10 10 10h10v64c0 5.523 4.477 10 10 10h40c5.523 0 10-4.477 10-10v-64h10c5.523 0 10-4.477 10-10v-60c0-5.523-4.477-10-10-10 13.956-19.579 12.632-47.823-5.388-65.518l-20.687-20.687 6.677-5.782c4.389-3.8 4.63-10.526.525-14.631l-3.737-3.737 56.801-49.189 28.054-15.708c4.412-2.47 7.356-6.725 8.144-11.702 9.942-3.526 19.008-9.157 26.661-16.569 4.121.236 8.321-1.204 11.47-4.352l20.422-20.422c4.085-4.085 5.497-9.832 4.271-15.083 16.382-28.684 11.749-65.233-11.963-88.945zm-383.246 388.413-5.167-5.167 61.218-72.897 16.851 16.843zm152.122-96.184-8.993-29.485 54.374-54.374 23.883 23.883zm79.875 174.097h-20v-54h20zm20-74h-60v-40h60zm-9.53-111.376c11.697 11.697 11.807 30.62 0 42.426-12.642 12.595-36.76 5.667-42.426 0l-24.752-24.752 45.475-39.377zm49.666-128.819-61.019-61.019 10.153-18.131 68.997 68.998zm31.612-24.956-67.676-67.676c2.093-6.701 5.485-12.898 9.977-18.307l76.006 76.006c-5.409 4.493-11.606 7.885-18.307 9.977zm36.166-20.402-83.438-83.439 14.142-14.142 83.438 83.439zm21.436-35.133-69.742-69.742c19.516-7.483 42.177-3.077 57.498 12.244s19.727 37.981 12.244 57.498zm-257.758 119.464c0-5.522 4.477-9.999 9.999-9.999s9.999 4.477 9.999 9.999-4.476 9.999-9.999 9.999-9.999-4.477-9.999-9.999zm96.237 99.633c5.522 0 9.999 4.477 9.999 9.999s-4.476 9.999-9.999 9.999c-5.522 0-9.999-4.477-9.999-9.999.001-5.523 4.477-9.999 9.999-9.999z" data-original="#000000" class="active-path" data-old_color="#000000" fill="#FFFFFF"/></g></g> </svg>
